<svg xmlns="http://www.w3.org/2000/svg" xmlns:xlink="http://www.w3.org/1999/xlink" id="Layer_1" x="0" y="0" version="1.1" viewBox="-191 -8 448 448" xml:space="preserve" style="enable-background:new -191 -8 448 448"><style type="text/css">.st0{fill:#fff}</style><g><g><rect width="272" height="32" x="-191" y="344" class="st0"/><rect width="80" height="32" x="177" y="344" class="st0"/><path d="M161,407.5c0,17.9-14.3,32.5-32,32.5l0,0c-17.7,0-32-14.6-32-32.5v-95c0-17.9,14.3-32.5,32-32.5l0,0 c17.7,0,32,14.6,32,32.5V407.5z" class="st0"/></g><g><rect width="80" height="32" x="-191" y="200" class="st0"/><rect width="272" height="32" x="-15" y="200" class="st0"/><path d="M-31,263.5c0,17.9-14.3,32.5-32,32.5l0,0c-17.7,0-32-14.6-32-32.5v-95c0-17.9,14.3-32.5,32-32.5l0,0 c17.7,0,32,14.6,32,32.5V263.5z" class="st0"/></g><g><rect width="272" height="32" x="-191" y="56" class="st0"/><rect width="80" height="32" x="177" y="56" class="st0"/><path d="M161,119.5c0,17.9-14.3,32.5-32,32.5l0,0c-17.7,0-32-14.6-32-32.5v-95C97,6.6,111.3-8,129-8l0,0c17.7,0,32,14.6,32,32.5 V119.5z" class="st0"/></g></g></svg>